<?xml version="1.0" encoding="utf-8"?>
<!-- Generator: Adobe Illustrator 24.0.3, SVG Export Plug-In . SVG Version: 6.00 Build 0)  -->
<svg version="1.1" id="Lager_1" xmlns="http://www.w3.org/2000/svg" xmlns:xlink="http://www.w3.org/1999/xlink" x="0px" y="0px"
	 viewBox="0 0 374 199" style="enable-background:new 0 0 374 199;" xml:space="preserve">
<style type="text/css">
	.st0{enable-background:new    ;}
	.st1{fill:#222222;}
</style>
<g class="st0">
	<path class="st1" d="M63.2,155.4H6.6c-2,0-3.5-0.5-4.5-1.4c-0.9-0.9-1.4-2.4-1.4-4.5V134c0-1.1,0.1-2,0.4-2.8s0.7-1.4,1.3-1.9
		l16.5-14c0.1-0.1,0.2-0.1,0.3-0.2c0.1,0,0.2-0.1,0.3-0.2V88H9.2c-2,0-3.5-0.5-4.5-1.4c-0.9-0.9-1.4-2.4-1.4-4.5V66.6
		c0-1.1,0.1-2,0.4-2.8s0.7-1.4,1.3-1.9l16.5-14c0.4-0.3,1-0.6,1.7-0.8s1.5-0.3,2.4-0.3h37.1c2,0,3.5,0.5,4.5,1.4
		c0.9,0.9,1.4,2.4,1.4,4.5v61.6h11c2,0,3.5,0.5,4.5,1.4c0.9,0.9,1.4,2.4,1.4,4.5v15.5c0,1.1-0.1,2-0.4,2.8s-0.7,1.4-1.3,1.9
		l-16.6,13.8c-0.3,0.3-0.9,0.6-1.6,0.9C64.9,155.3,64.1,155.4,63.2,155.4z M79.7,140.2c1.6,0,2.8-0.4,3.5-1.1
		c0.7-0.7,1.1-1.9,1.1-3.5v-15.5c0-1.6-0.4-2.8-1.1-3.5s-1.9-1.1-3.5-1.1H67.4V52.6c0-1.6-0.4-2.8-1.1-3.5S64.4,48,62.8,48H25.7
		c-1.6,0-2.8,0.4-3.5,1.1c-0.7,0.7-1.1,1.9-1.1,3.5v15.5c0,1.6,0.4,2.8,1.1,3.5s1.9,1.1,3.5,1.1h11.8v42.8H23.2
		c-1.6,0-2.8,0.4-3.5,1.1s-1.1,1.9-1.1,3.5v15.5c0,1.6,0.4,2.8,1.1,3.5s1.9,1.1,3.5,1.1L79.7,140.2L79.7,140.2z M30.1,129.3V128
		h21.8V60.8H32.6v-1.3h20.5V128h19.7v1.3H30.1z"/>
	<path class="st1" d="M106,155.4c-2.1,0-3.6-0.5-4.5-1.4s-1.3-2.4-1.3-4.5v-15.1c0-1.1,0.1-2,0.4-2.8s0.7-1.4,1.3-1.9l9.3-7.9
		c-7.9-1.1-13.4-3.6-16.4-7.6s-4.5-9.3-4.5-15.9V85.9c0-4.1,0.6-7.8,1.7-11.1c1.1-3.3,3.1-6.2,6-8.6l16.5-13.8
		c2.8-2.4,6.7-4.2,11.6-5.6c4.9-1.3,11.2-2,18.9-2c8.2,0,14.9,0.7,20.1,2c5.2,1.3,9.3,3.2,12.2,5.6c2.9,2.4,4.9,5.2,5.9,8.6
		c1,3.3,1.5,7,1.5,11v42c0,4.4-0.6,8.3-1.9,11.8c-1.2,3.5-3.3,6.6-6.2,9L160,148.6c-2.5,2.1-5.7,3.8-9.8,5s-9,1.8-14.8,1.8
		L106,155.4L106,155.4z M151.9,140.2c12,0,20.3-2.4,24.8-7.3s6.7-11.2,6.7-18.9V72c0-3.9-0.5-7.5-1.6-10.6c-1.1-3.2-3-5.9-5.8-8.1
		c-2.8-2.3-6.7-4-11.7-5.2s-11.4-1.9-19.3-1.9c-7.3,0-13.4,0.6-18.2,1.9c-4.8,1.2-8.6,3-11.3,5.2c-2.8,2.3-4.7,5-5.8,8.1
		c-1.1,3.2-1.6,6.7-1.6,10.6v12.3c0,7.6,2.1,13.3,6.4,17.2c4.3,3.9,12.2,5.8,23.7,5.8c3.4,0,6.5-0.2,9.2-0.5s5.1-0.8,7.1-1.4v2.8
		c0,3.2-0.6,5.2-1.7,6.2c-1.1,1-3.2,1.5-6.4,1.5h-23.9c-1.6,0-2.8,0.4-3.5,1.1s-1.1,1.9-1.1,3.5v15.1c0,1.6,0.4,2.8,1.1,3.5
		s1.9,1.1,3.5,1.1L151.9,140.2L151.9,140.2z M129.4,128.7v-1.3h22.5c4.9,0,8.7-0.9,11.6-2.8c2.9-1.8,4.3-5.4,4.3-10.7v-24
		c-1.5,3.4-4.4,5.5-8.7,6.1c-4.3,0.7-9.2,1-14.8,1c-3.2,0-6.1-0.1-8.8-0.3c-2.7-0.2-5-0.8-7-1.7c-2-0.9-3.6-2.3-4.7-4.2
		c-1.2-1.9-1.7-4.4-1.7-7.7V72c0-3.2,0.6-5.8,1.7-7.8c1.2-2,2.8-3.5,4.8-4.5s4.5-1.7,7.2-2c2.8-0.3,5.7-0.5,8.9-0.5
		c3.4,0,6.6,0.2,9.6,0.4c3,0.3,5.6,1,7.8,2s3.9,2.5,5.2,4.5c1.2,2,1.9,4.6,1.9,7.9v42c0,5.6-1.5,9.5-4.5,11.6s-7.2,3.1-12.6,3.1
		H129.4z M144.2,95.8c2.8,0,5.6,0,8.4-0.1c2.8-0.1,5.3-0.5,7.6-1.3c2.2-0.8,4-2,5.4-3.6s2.1-4,2.1-7.1V72c0-3.1-0.6-5.5-1.9-7.4
		c-1.2-1.8-2.9-3.2-5-4.1c-2.1-0.9-4.5-1.5-7.4-1.7c-2.8-0.3-5.8-0.4-9-0.4c-2.9,0-5.7,0.1-8.3,0.4c-2.6,0.3-4.9,0.9-6.8,1.8
		c-2,0.9-3.5,2.3-4.6,4.2c-1.1,1.8-1.7,4.2-1.7,7.2v11.3c0,3.1,0.6,5.5,1.7,7.2c1.2,1.7,2.7,3,4.5,3.8c1.9,0.8,4.1,1.3,6.7,1.4
		S141.4,95.8,144.2,95.8z M154.5,81.6c0,1.3-0.5,2.4-1.5,3.3s-3.4,1.3-7,1.3c-3.8,0-6.3-0.4-7.3-1.3s-1.5-2-1.5-3.3V74
		c0-1.4,0.5-2.5,1.5-3.4s3.5-1.3,7.3-1.3c3.7,0,6,0.4,7,1.3s1.5,2,1.5,3.4V81.6z"/>
	<path class="st1" d="M226.7,155.4H206c-2,0-3.5-0.5-4.5-1.4c-0.9-0.9-1.4-2.4-1.4-4.5v-23.2c0-5,0.6-9.2,1.9-12.4
		c1.2-3.2,3-5.8,5.4-7.9l16.5-14c0.9-0.7,1.8-1.3,2.9-2c1.1-0.6,2.3-1.3,3.6-1.9V88h-33.8c-2,0-3.5-0.5-4.5-1.4
		c-0.9-0.9-1.4-2.4-1.4-4.5V66.6c0-1.1,0.1-2,0.4-2.8c0.3-0.8,0.7-1.4,1.3-1.9l16.5-14c0.4-0.3,1-0.6,1.7-0.8s1.5-0.3,2.4-0.3h59.5
		c2,0,3.5,0.5,4.5,1.4c0.9,0.9,1.4,2.4,1.4,4.5V85c0,5-0.6,9.1-1.9,12.3c-1.2,3.2-3.1,5.8-5.4,7.9L254.5,119
		c-0.8,0.6-1.6,1.2-2.5,1.8c-0.9,0.6-1.9,1.2-3,1.7v13.1c0,1.1-0.2,2-0.4,2.8c-0.3,0.8-0.7,1.4-1.3,1.9l-16.6,13.8
		c-0.3,0.3-0.9,0.6-1.6,0.9C228.3,155.3,227.5,155.4,226.7,155.4z M272.6,48h-59.5c-1.6,0-2.8,0.4-3.5,1.1c-0.7,0.7-1.1,1.9-1.1,3.5
		v15.5c0,1.6,0.4,2.8,1.1,3.5c0.7,0.7,1.9,1.1,3.5,1.1h35.1v11.5L237.8,87c-3.4,1-6.4,2.2-8.9,3.4c-2.5,1.2-4.6,2.8-6.2,4.7
		c-1.6,1.9-2.8,4.2-3.6,7s-1.2,6.2-1.2,10.2v23.2c0,1.6,0.4,2.8,1.1,3.5c0.7,0.7,1.9,1.1,3.5,1.1h20.7c1.6,0,2.8-0.4,3.5-1.1
		c0.7-0.7,1.1-1.9,1.1-3.5v-22.4l9.5-2.8c3.4-1,6.4-2.2,8.9-3.4c2.5-1.2,4.6-2.8,6.2-4.7c1.6-1.9,2.8-4.2,3.6-7
		c0.8-2.8,1.2-6.2,1.2-10.2V52.6c0-1.6-0.4-2.8-1.1-3.5C275.4,48.4,274.3,48,272.6,48z M232.2,128.7v-19.2c0-2,0.4-3.5,1.2-4.6
		s1.9-2,3.3-2.6l21.8-8.7c1.3-0.5,2.2-1.2,2.8-2.1c0.6-0.9,0.9-2.2,0.9-3.8V60.8H220v-1.3h43.4v28.2c0,2-0.4,3.5-1.1,4.6
		s-1.9,2-3.4,2.6l-21.8,8.7c-1.1,0.4-2,1.1-2.7,2s-1,2.2-1,3.8v19.2h-1.2V128.7z"/>
	<path class="st1" d="M291.1,155.4c-2,0-3.5-0.5-4.5-1.4c-0.9-0.9-1.4-2.4-1.4-4.5v-15c0-1.1,0.1-2,0.4-2.8s0.7-1.4,1.3-1.9l11.9-10
		c-1.1-0.3-1.9-1-2.5-1.9s-0.8-2.1-0.8-3.6v-13.7c0-1.1,0.1-2,0.4-2.8s0.7-1.4,1.3-1.9l9.7-8.2h-16c-2,0-3.5-0.5-4.5-1.4
		c-0.9-0.9-1.4-2.4-1.4-4.5V66.6c0-1.1,0.1-2,0.4-2.8s0.7-1.4,1.3-1.9l16.5-14c0.4-0.3,1-0.6,1.7-0.8s1.5-0.3,2.4-0.3H343
		c7.6,0,13.2,1.8,16.8,5.4c3.6,3.6,5.4,8.3,5.4,14.2v7.4c0,2.8-0.4,5.3-1.2,7.5c-0.8,2.2-2,4-3.7,5.4L360,87c5,1.1,8.6,3.2,10.6,6.4
		c2,3.2,3.1,7.4,3.1,12.8V119c0,3.6-0.6,6.8-1.8,9.7c-1.2,2.9-3,5.3-5.4,7.2l-16.4,13.8c-2.1,1.9-4.8,3.3-8,4.3s-6.9,1.5-11.1,1.5
		h-39.9L291.1,155.4L291.1,155.4z M307.6,116c-1.6,0-2.8,0.4-3.5,1.1s-1.1,1.9-1.1,3.5v15c0,1.6,0.4,2.8,1.1,3.5s1.9,1.1,3.5,1.1
		H348c8.2,0,14.4-1.9,18.6-5.7s6.3-9,6.3-15.6v-12.8c0-5.6-1.2-10-3.5-13s-6.5-4.9-12.6-5.6c2.8-1.2,4.8-3,5.9-5.4s1.7-5.2,1.7-8.4
		v-7.4c0-5.6-1.7-10.1-5.2-13.4c-3.5-3.3-8.7-4.9-15.8-4.9h-35.7c-1.6,0-2.8,0.4-3.5,1.1c-0.7,0.7-1.1,1.9-1.1,3.5v15.2
		c0,1.6,0.4,2.8,1.1,3.5s1.9,1.1,3.5,1.1h23.8c2,0,3.4,0.4,4,1.2c0.6,0.8,0.9,1.7,0.9,2.7v1.9c0,1-0.3,1.9-0.9,2.7
		c-0.6,0.8-1.9,1.2-4,1.2h-13.4c-1.6,0-2.8,0.4-3.5,1.1s-1.1,1.9-1.1,3.5v13.7c0,1.6,0.4,2.8,1.1,3.5s1.9,1.1,3.5,1.1h21.8
		c2,0,3.4,0.4,4,1.1s0.9,1.6,0.9,2.6v3.5c0,1-0.3,1.9-0.9,2.7c-0.6,0.8-1.9,1.2-4,1.2L307.6,116L307.6,116z M324.9,94.2v-1.3h10.6
		c3.2,0,5.8-0.3,7.7-1c1.9-0.6,3.3-1.5,4.3-2.6s1.6-2.3,1.9-3.7c0.3-1.4,0.4-2.9,0.4-4.4v-8.7c0-3.3-1-6.1-3.1-8.4
		c-2-2.3-6.2-3.4-12.4-3.4h-19.7v-1.3h19.7c3.5,0,6.4,0.4,8.6,1.1c2.2,0.7,3.9,1.7,5.1,2.9s2,2.7,2.4,4.3s0.6,3.4,0.6,5.2v8.2
		c0,2.4-0.4,4.8-1.3,7.1c-0.9,2.3-3.3,3.9-7.1,4.8h2c5.3,0,9.1,1.2,11.4,3.6s3.5,5.8,3.5,10.2v8.8c0,1.9-0.2,3.6-0.6,5.2
		s-1.2,2.9-2.4,4c-1.2,1.1-2.8,2-5.1,2.6c-2.2,0.6-5.1,1-8.7,1h-28.2v-1.3h28.2c6.4,0,10.6-1,12.5-3.1c2-2.1,2.9-4.9,2.9-8.4V107
		c0-4.3-1.1-7.5-3.3-9.6c-2.2-2.1-5.7-3.2-10.6-3.2C344.2,94.2,324.9,94.2,324.9,94.2z"/>
</g>
<g class="st0">
	<path d="M11.7,190.2v-13h4.4c0.9,0,1.8,0.2,2.5,0.5s1.3,0.8,1.7,1.4s0.6,1.4,0.6,2.3c0,0.9-0.2,1.6-0.6,2.2
		c-0.4,0.6-0.9,1.1-1.6,1.4c-0.7,0.3-1.5,0.5-2.4,0.5h-2.9v4.8L11.7,190.2L11.7,190.2z M13.4,184h2.9c0.9,0,1.6-0.2,2.2-0.7
		s0.8-1.2,0.8-2c0-0.9-0.3-1.5-0.9-2s-1.3-0.7-2.2-0.7h-2.8C13.4,178.6,13.4,184,13.4,184z"/>
	<path d="M33.8,184.2h-7v6h-1.7v-13h1.7v5.5h7v-5.5h1.7v13h-1.7V184.2z"/>
	<path d="M45.8,190.4c-1.2,0-2.2-0.3-3-0.8s-1.5-1.3-2-2.3s-0.7-2.2-0.7-3.6c0-1.4,0.2-2.6,0.7-3.6s1.1-1.8,2-2.3
		c0.8-0.5,1.8-0.8,3-0.8s2.1,0.3,3,0.8c0.8,0.5,1.5,1.3,1.9,2.3c0.5,1,0.7,2.2,0.7,3.6c0,1.4-0.2,2.6-0.7,3.6s-1.1,1.8-1.9,2.3
		C48,190.1,47,190.4,45.8,190.4z M45.8,188.9c0.8,0,1.5-0.2,2.1-0.5c0.6-0.4,1-0.9,1.3-1.7s0.4-1.7,0.4-2.9s-0.1-2.2-0.5-3
		c-0.3-0.8-0.7-1.4-1.3-1.7c-0.6-0.4-1.2-0.6-2-0.6s-1.5,0.2-2,0.6s-1,1-1.3,1.7c-0.3,0.8-0.5,1.8-0.5,3s0.2,2.2,0.5,2.9
		c0.3,0.8,0.7,1.3,1.3,1.7C44.3,188.7,45,188.9,45.8,188.9z"/>
	<path d="M55,178.7v-1.5h9.8v1.5h-4v11.5h-1.7v-11.5H55z"/>
	<path d="M73.8,190.4c-1.2,0-2.2-0.3-3-0.8s-1.5-1.3-2-2.3s-0.7-2.2-0.7-3.6c0-1.4,0.2-2.6,0.7-3.6s1.1-1.8,2-2.3
		c0.8-0.5,1.8-0.8,3-0.8s2.1,0.3,3,0.8c0.8,0.5,1.5,1.3,1.9,2.3s0.7,2.2,0.7,3.6c0,1.4-0.2,2.6-0.7,3.6s-1.1,1.8-1.9,2.3
		C75.9,190.1,74.9,190.4,73.8,190.4z M73.8,188.9c0.8,0,1.5-0.2,2.1-0.5c0.6-0.4,1-0.9,1.3-1.7s0.4-1.7,0.4-2.9s-0.2-2.2-0.5-3
		s-0.7-1.4-1.3-1.7c-0.6-0.4-1.2-0.6-2-0.6s-1.5,0.2-2,0.6c-0.6,0.4-1,1-1.3,1.7c-0.3,0.8-0.5,1.8-0.5,3s0.2,2.2,0.5,2.9
		c0.3,0.8,0.7,1.3,1.3,1.7C72.3,188.7,73,188.9,73.8,188.9z"/>
	<path d="M85.3,181.2v2.1h-2v-2.1H85.3z M85.3,188v2.1h-2V188H85.3z"/>
	<path d="M100.6,190.4c-0.6,0-1.2-0.1-1.8-0.2c-0.6-0.2-1.1-0.4-1.6-0.7s-0.9-0.7-1.2-1.1c-0.3-0.5-0.5-1-0.6-1.6h1.7
		c0.1,0.5,0.3,0.9,0.6,1.2s0.7,0.6,1.2,0.8s1,0.3,1.5,0.3c0.6,0,1.2-0.1,1.6-0.3c0.5-0.2,0.9-0.4,1.1-0.7c0.3-0.3,0.4-0.7,0.4-1.1
		c0-0.4-0.1-0.7-0.3-1c-0.2-0.3-0.4-0.5-0.8-0.7c-0.3-0.2-0.7-0.3-1.2-0.5l-2.6-0.6c-1-0.2-1.7-0.6-2.3-1.1s-0.8-1.3-0.8-2.1
		s0.2-1.4,0.6-2s0.9-1,1.6-1.3s1.5-0.5,2.4-0.5c1,0,1.9,0.2,2.6,0.5c0.7,0.4,1.2,0.8,1.6,1.4c0.4,0.6,0.5,1.2,0.5,1.8h-1.7
		c-0.1-0.6-0.2-1.1-0.5-1.4c-0.3-0.3-0.7-0.6-1.1-0.7c-0.4-0.1-0.9-0.2-1.4-0.2c-0.4,0-0.7,0-1.1,0.1c-0.3,0.1-0.7,0.2-0.9,0.4
		c-0.3,0.2-0.5,0.4-0.7,0.7s-0.2,0.6-0.2,1c0,0.5,0.2,0.8,0.5,1.1s0.9,0.5,1.8,0.8l2.5,0.6c0.6,0.1,1.2,0.3,1.6,0.6s0.7,0.6,1,0.9
		c0.2,0.3,0.4,0.7,0.5,1.1s0.1,0.7,0.1,1.1c0,0.7-0.2,1.2-0.6,1.8s-0.9,1-1.7,1.3C102.5,190.2,101.6,190.4,100.6,190.4z"/>
	<path d="M119.8,177.2l-4.6,13h-2l-4.5-13h1.6l3.9,11.1l4-11.1H119.8z"/>
	<path d="M123.9,190.2v-13h8.2v1.5h-6.5v4.2h5.9v1.5h-5.9v4.3h6.7v1.5H123.9z"/>
	<path d="M145.8,177.2h1.7v13H146l-7-10.3v10.3h-1.7v-13h1.6l6.9,10.1V177.2z"/>
	<path d="M156.8,184.9v1.3h-4.6v-1.3H156.8z"/>
	<path d="M166.6,190.4c-1.2,0-2.2-0.3-3-0.8s-1.5-1.3-2-2.3s-0.7-2.2-0.7-3.6c0-1.4,0.2-2.6,0.7-3.6s1.1-1.8,2-2.3
		c0.8-0.5,1.8-0.8,3-0.8s2.1,0.3,3,0.8c0.8,0.5,1.5,1.3,1.9,2.3s0.7,2.2,0.7,3.6c0,1.4-0.2,2.6-0.7,3.6s-1.1,1.8-1.9,2.3
		C168.7,190.1,167.7,190.4,166.6,190.4z M166.6,188.9c0.8,0,1.5-0.2,2.1-0.5c0.6-0.4,1-0.9,1.3-1.7s0.4-1.7,0.4-2.9s-0.2-2.2-0.5-3
		s-0.7-1.4-1.3-1.7c-0.6-0.4-1.2-0.6-2-0.6s-1.5,0.2-2,0.6c-0.6,0.4-1,1-1.3,1.7c-0.3,0.8-0.5,1.8-0.5,3s0.2,2.2,0.5,2.9
		c0.3,0.8,0.7,1.3,1.3,1.7C165.1,188.7,165.8,188.9,166.6,188.9z"/>
	<path d="M176.9,177.2h1.7v11.5h6.1v1.5h-7.9L176.9,177.2z"/>
	<path d="M193.8,190.4c-1.2,0-2.2-0.3-3-0.8s-1.5-1.3-2-2.3s-0.7-2.2-0.7-3.6c0-1.4,0.2-2.6,0.7-3.6s1.1-1.8,2-2.3
		c0.8-0.5,1.8-0.8,3-0.8s2.1,0.3,3,0.8c0.8,0.5,1.5,1.3,1.9,2.3s0.7,2.2,0.7,3.6c0,1.4-0.2,2.6-0.7,3.6s-1.1,1.8-1.9,2.3
		C196,190.1,195,190.4,193.8,190.4z M193.8,188.9c0.8,0,1.5-0.2,2.1-0.5c0.6-0.4,1-0.9,1.3-1.7s0.4-1.7,0.4-2.9s-0.2-2.2-0.5-3
		s-0.7-1.4-1.3-1.7c-0.6-0.4-1.2-0.6-2-0.6s-1.5,0.2-2,0.6c-0.6,0.4-1,1-1.3,1.7c-0.3,0.8-0.5,1.8-0.5,3s0.2,2.2,0.5,2.9
		c0.3,0.8,0.7,1.3,1.3,1.7C192.3,188.7,193,188.9,193.8,188.9z"/>
	<path d="M204.1,177.2h8.1v1.5h-6.4v4.3h5.7v1.4h-5.7v5.8h-1.7L204.1,177.2L204.1,177.2z"/>
	<path d="M227.4,190.4c-0.6,0-1.2-0.1-1.8-0.2c-0.6-0.2-1.1-0.4-1.6-0.7s-0.9-0.7-1.2-1.1c-0.3-0.5-0.5-1-0.6-1.6h1.7
		c0.1,0.5,0.3,0.9,0.6,1.2s0.7,0.6,1.2,0.8s1,0.3,1.5,0.3c0.6,0,1.2-0.1,1.6-0.3c0.5-0.2,0.9-0.4,1.1-0.7c0.3-0.3,0.4-0.7,0.4-1.1
		c0-0.4-0.1-0.7-0.3-1s-0.4-0.5-0.8-0.7c-0.3-0.2-0.7-0.3-1.2-0.5l-2.6-0.6c-1-0.2-1.7-0.6-2.3-1.1s-0.8-1.3-0.8-2.1s0.2-1.4,0.6-2
		c0.4-0.6,0.9-1,1.6-1.3c0.7-0.3,1.5-0.5,2.4-0.5c1,0,1.9,0.2,2.6,0.5c0.7,0.4,1.2,0.8,1.6,1.4c0.4,0.6,0.5,1.2,0.5,1.8h-1.7
		c-0.1-0.6-0.2-1.1-0.5-1.4c-0.3-0.3-0.7-0.6-1.1-0.7c-0.4-0.1-0.9-0.2-1.4-0.2c-0.4,0-0.7,0-1.1,0.1c-0.3,0.1-0.7,0.2-0.9,0.4
		c-0.3,0.2-0.5,0.4-0.7,0.7s-0.2,0.6-0.2,1c0,0.5,0.2,0.8,0.5,1.1s0.9,0.5,1.8,0.8l2.5,0.6c0.6,0.1,1.2,0.3,1.6,0.6
		c0.4,0.3,0.7,0.6,1,0.9c0.2,0.3,0.4,0.7,0.5,1.1s0.1,0.7,0.1,1.1c0,0.7-0.2,1.2-0.6,1.8s-0.9,1-1.7,1.3
		C229.3,190.2,228.4,190.4,227.4,190.4z"/>
	<path d="M235.8,190.2l4.7-13h1.9l4.7,13h-1.7l-1.3-3.6h-5.3l-1.3,3.6H235.8z M239.2,185.1h4.5l-2.2-6.3L239.2,185.1z"/>
	<path d="M251.6,190.2v-13h2.3l3.9,10.7l4-10.7h2.3v13h-1.7v-10.5l-3.8,10.5H257l-3.7-10.4v10.4H251.6z"/>
	<path d="M278.9,185.7c0,1-0.2,1.9-0.5,2.5s-0.8,1.2-1.5,1.6c-0.7,0.4-1.6,0.5-2.7,0.5s-2-0.2-2.7-0.6s-1.2-0.9-1.5-1.6
		c-0.3-0.7-0.5-1.6-0.5-2.7v-8.3h1.7v8.6c0,1,0.3,1.8,0.8,2.4c0.5,0.5,1.3,0.8,2.2,0.8c0.7,0,1.2-0.1,1.7-0.3s0.8-0.6,1.1-1
		c0.2-0.5,0.4-1.1,0.4-1.8v-8.6h1.7v8.5L278.9,185.7L278.9,185.7z"/>
	<path d="M284,190.2v-13h8.2v1.5h-6.5v4.2h5.9v1.5h-5.9v4.3h6.7v1.5H284z"/>
	<path d="M297.4,177.2h1.7v11.5h6.1v1.5h-7.9L297.4,177.2z"/>
	<path d="M314.5,190.4c-0.6,0-1.2-0.1-1.8-0.2c-0.6-0.2-1.1-0.4-1.6-0.7s-0.9-0.7-1.2-1.1c-0.3-0.5-0.5-1-0.6-1.6h1.7
		c0.1,0.5,0.3,0.9,0.6,1.2s0.7,0.6,1.2,0.8s1,0.3,1.5,0.3c0.6,0,1.2-0.1,1.6-0.3c0.5-0.2,0.9-0.4,1.1-0.7c0.3-0.3,0.4-0.7,0.4-1.1
		c0-0.4-0.1-0.7-0.3-1c-0.2-0.3-0.4-0.5-0.8-0.7c-0.3-0.2-0.7-0.3-1.2-0.5l-2.6-0.6c-1-0.2-1.7-0.6-2.3-1.1s-0.8-1.3-0.8-2.1
		s0.2-1.4,0.6-2s0.9-1,1.6-1.3s1.5-0.5,2.4-0.5c1,0,1.9,0.2,2.6,0.5c0.7,0.4,1.2,0.8,1.6,1.4c0.4,0.6,0.5,1.2,0.5,1.8H317
		c-0.1-0.6-0.2-1.1-0.5-1.4c-0.3-0.3-0.7-0.6-1.1-0.7c-0.4-0.1-0.9-0.2-1.4-0.2c-0.4,0-0.7,0-1.1,0.1c-0.3,0.1-0.7,0.2-0.9,0.4
		c-0.3,0.2-0.5,0.4-0.7,0.7s-0.2,0.6-0.2,1c0,0.5,0.2,0.8,0.5,1.1s0.9,0.5,1.8,0.8l2.5,0.6c0.6,0.1,1.2,0.3,1.6,0.6s0.7,0.6,1,0.9
		c0.2,0.3,0.4,0.7,0.5,1.1s0.1,0.7,0.1,1.1c0,0.7-0.2,1.2-0.6,1.8s-0.9,1-1.7,1.3C316.4,190.2,315.5,190.4,314.5,190.4z"/>
	<path d="M328.7,190.4c-0.6,0-1.2-0.1-1.8-0.2c-0.6-0.2-1.1-0.4-1.6-0.7s-0.9-0.7-1.2-1.1c-0.3-0.5-0.5-1-0.6-1.6h1.7
		c0.1,0.5,0.3,0.9,0.6,1.2s0.7,0.6,1.2,0.8s1,0.3,1.5,0.3c0.6,0,1.2-0.1,1.6-0.3c0.5-0.2,0.9-0.4,1.1-0.7c0.3-0.3,0.4-0.7,0.4-1.1
		c0-0.4-0.1-0.7-0.3-1c-0.2-0.3-0.4-0.5-0.8-0.7c-0.3-0.2-0.7-0.3-1.2-0.5l-2.6-0.6c-1-0.2-1.7-0.6-2.3-1.1s-0.8-1.3-0.8-2.1
		s0.2-1.4,0.6-2s0.9-1,1.6-1.3s1.5-0.5,2.4-0.5c1,0,1.9,0.2,2.6,0.5c0.7,0.4,1.2,0.8,1.6,1.4c0.4,0.6,0.5,1.2,0.5,1.8h-1.7
		c-0.1-0.6-0.2-1.1-0.5-1.4c-0.3-0.3-0.7-0.6-1.1-0.7c-0.4-0.1-0.9-0.2-1.4-0.2c-0.4,0-0.7,0-1.1,0.1c-0.3,0.1-0.7,0.2-0.9,0.4
		c-0.3,0.2-0.5,0.4-0.7,0.7s-0.2,0.6-0.2,1c0,0.5,0.2,0.8,0.5,1.1s0.9,0.5,1.8,0.8l2.5,0.6c0.6,0.1,1.2,0.3,1.6,0.6s0.7,0.6,1,0.9
		c0.2,0.3,0.4,0.7,0.5,1.1s0.1,0.7,0.1,1.1c0,0.7-0.2,1.2-0.6,1.8s-0.9,1-1.7,1.3C330.6,190.2,329.7,190.4,328.7,190.4z"/>
	<path d="M343.1,190.4c-1.2,0-2.2-0.3-3-0.8s-1.5-1.3-2-2.3s-0.7-2.2-0.7-3.6c0-1.4,0.2-2.6,0.7-3.6s1.1-1.8,2-2.3
		c0.8-0.5,1.8-0.8,3-0.8s2.1,0.3,3,0.8c0.8,0.5,1.5,1.3,1.9,2.3s0.7,2.2,0.7,3.6c0,1.4-0.2,2.6-0.7,3.6s-1.1,1.8-1.9,2.3
		C345.2,190.1,344.2,190.4,343.1,190.4z M343.1,188.9c0.8,0,1.5-0.2,2.1-0.5c0.6-0.4,1-0.9,1.3-1.7s0.4-1.7,0.4-2.9s-0.2-2.2-0.5-3
		s-0.7-1.4-1.3-1.7c-0.6-0.4-1.2-0.6-2-0.6s-1.5,0.2-2,0.6c-0.6,0.4-1,1-1.3,1.7c-0.3,0.8-0.5,1.8-0.5,3s0.2,2.2,0.5,2.9
		c0.3,0.8,0.7,1.3,1.3,1.7C341.6,188.7,342.3,188.9,343.1,188.9z"/>
	<path d="M361.9,177.2h1.7v13H362l-7-10.3v10.3h-1.7v-13h1.6l6.9,10.1v-10.1H361.9z"/>
</g>
<g class="st0">
	<path class="st1" d="M17.1,25.2H7.3c-0.4,0-0.7-0.1-0.9-0.3c-0.2-0.2-0.3-0.5-0.3-0.9v-3.6c0-0.4,0.1-0.7,0.3-0.9
		c0.2-0.2,0.5-0.3,0.9-0.3h8.3c0.3,0,0.5-0.1,0.6-0.3c0.1-0.2,0.2-0.4,0.2-0.6c0-0.4-0.1-0.6-0.2-0.8c-0.1-0.2-0.3-0.3-0.6-0.3
		L11,16.7c-1.4-0.2-2.6-0.7-3.5-1.4c-0.9-0.7-1.3-2-1.3-3.7V8.3c0-1.8,0.6-3.1,1.7-4s2.7-1.4,4.7-1.4h8.7c0.4,0,0.7,0.1,0.9,0.3
		c0.2,0.2,0.3,0.5,0.3,0.9v3.7c0,0.4-0.1,0.7-0.3,0.9S21.7,9,21.3,9h-7.2c-0.3,0-0.5,0.1-0.6,0.3s-0.2,0.4-0.2,0.7s0.1,0.5,0.2,0.7
		c0.1,0.2,0.4,0.3,0.6,0.3l4.6,0.6c1.4,0.2,2.6,0.7,3.5,1.4s1.3,2,1.3,3.7V20c0,1.8-0.6,3.1-1.7,4S19.1,25.2,17.1,25.2z M19.6,5.6
		h-6.9c-1,0-1.7,0.3-2.3,0.8C9.9,7,9.6,7.6,9.6,8.5V11c0,0.8,0.2,1.4,0.5,1.8c0.3,0.3,0.8,0.5,1.3,0.6l6.5,1.3
		c0.6,0.1,1,0.4,1.4,0.7c0.3,0.4,0.5,1,0.5,2v1.8c0,0.8-0.3,1.5-0.9,2S17.6,22,16.6,22H9v0.3h7.7c1.1,0,1.9-0.3,2.5-0.9
		s0.9-1.3,0.9-2.2v-1.8c0-1.1-0.2-1.8-0.6-2.2s-0.9-0.7-1.5-0.8l-6.5-1.3c-0.5-0.1-0.9-0.3-1.1-0.6C10,12.2,9.9,11.7,9.9,11V8.5
		c0-0.7,0.3-1.3,0.8-1.8s1.2-0.7,2-0.7h6.9V5.6z"/>
	<path class="st1" d="M42.9,2.9h4.6c0.4,0,0.7,0.1,0.9,0.3s0.3,0.5,0.3,0.9v12c0,0.7,0,1.3-0.1,1.8c-0.1,0.6-0.2,1.2-0.5,2l-1.5,4.2
		c-0.1,0.3-0.3,0.6-0.4,0.8c-0.2,0.2-0.5,0.3-0.8,0.3h-4.1c-0.3,0-0.6-0.1-0.9-0.2s-0.4-0.4-0.5-0.7l-1.4-5.1
		c-0.1-0.2-0.1-0.3-0.2-0.4c-0.1-0.1-0.2-0.1-0.3-0.1h-0.3c-0.1,0-0.2,0-0.3,0.1s-0.2,0.2-0.2,0.4l-1.5,5.1
		c-0.1,0.3-0.2,0.5-0.5,0.7c-0.2,0.2-0.5,0.2-0.8,0.2h-4.1c-0.3,0-0.6-0.1-0.9-0.3c-0.2-0.2-0.4-0.5-0.5-0.8l-1.5-4.3
		c-0.3-0.8-0.4-1.4-0.5-2s-0.1-1.2-0.1-1.8V4c0-0.4,0.1-0.7,0.3-0.9c0.2-0.2,0.5-0.3,0.9-0.3h4.8c0.4,0,0.7,0.1,0.9,0.3S34,3.6,34,4
		v11.4l1.8-3.9c0.2-0.4,0.4-0.6,0.7-0.7c0.3-0.1,0.6-0.2,1-0.2h1.3c0.4,0,0.7,0.1,1,0.2c0.3,0.1,0.5,0.4,0.7,0.7l1.8,3.9V4
		c0-0.4,0.1-0.7,0.3-0.9C42.3,2.9,42.5,2.9,42.9,2.9z M38.4,14.5H37c-0.3,0-0.6,0.1-0.8,0.3s-0.4,0.6-0.7,1.2L33,21.7
		c-0.1,0.2-0.2,0.3-0.4,0.4c-0.2,0-0.3,0.1-0.5,0.1h-0.2c-0.2,0-0.3-0.1-0.5-0.2c-0.1-0.1-0.2-0.3-0.2-0.4l-0.8-3.5
		c-0.1-0.4-0.1-0.9-0.1-1.5c0-0.6,0-1.2,0-1.6V5.6H30v9.1c0,0.5,0,1,0,1.6c0,0.6,0.1,1.1,0.1,1.5l0.8,3.5c0.1,0.3,0.2,0.6,0.4,0.7
		c0.2,0.2,0.4,0.2,0.6,0.2h0.2c0.2,0,0.4,0,0.6-0.1s0.4-0.2,0.4-0.4l2.5-5.8c0.2-0.6,0.5-0.9,0.6-1.1c0.2-0.2,0.4-0.2,0.6-0.2h1.4
		c0.2,0,0.5,0.1,0.6,0.2c0.2,0.2,0.4,0.5,0.6,1.1l2.5,5.8c0.1,0.2,0.2,0.3,0.4,0.4s0.4,0.1,0.6,0.1h0.2c0.2,0,0.5-0.1,0.6-0.2
		c0.2-0.2,0.3-0.4,0.4-0.7l0.8-3.5c0.1-0.4,0.1-0.9,0.1-1.5c0-0.6,0-1.2,0-1.6V5.6h-0.3v9.1c0,0.5,0,1,0,1.6c0,0.6-0.1,1.1-0.1,1.5
		l-0.8,3.5c0,0.2-0.1,0.3-0.2,0.4c-0.1,0.1-0.3,0.2-0.5,0.2h-0.2c-0.1,0-0.3,0-0.5-0.1c-0.2,0-0.3-0.2-0.4-0.4l-2.5-5.7
		c-0.3-0.6-0.5-1-0.7-1.2C39,14.6,38.7,14.5,38.4,14.5z"/>
	<path class="st1" d="M68.2,25.2H53.8c-0.4,0-0.7-0.1-0.9-0.3c-0.2-0.2-0.3-0.5-0.3-0.9V4c0-0.4,0.1-0.7,0.3-0.9s0.5-0.3,0.9-0.3
		h14.4c0.4,0,0.7,0.1,0.9,0.3c0.2,0.2,0.3,0.5,0.3,0.9v3.6c0,0.4-0.1,0.7-0.3,0.9c-0.2,0.2-0.5,0.3-0.9,0.3h-8.6v2.4h6
		c0.4,0,0.7,0.1,0.9,0.3c0.2,0.2,0.3,0.5,0.3,0.9v3.3c0,0.4-0.1,0.7-0.3,0.9c-0.2,0.2-0.5,0.3-0.9,0.3h-6v2.7h8.6
		c0.4,0,0.7,0.1,0.9,0.3c0.2,0.2,0.3,0.5,0.3,0.9v3.6c0,0.4-0.1,0.7-0.3,0.9C68.8,25.1,68.6,25.2,68.2,25.2z M66.5,22.1H56.4v-8H64
		v-0.3h-7.6V6h10.1V5.6H56v16.7h10.4L66.5,22.1L66.5,22.1z"/>
	<path class="st1" d="M84.5,25.2H74.1c-0.4,0-0.7-0.1-0.9-0.3c-0.2-0.2-0.3-0.5-0.3-0.9V4c0-0.4,0.1-0.7,0.3-0.9
		c0.2-0.2,0.5-0.3,0.9-0.3h10.4c2.6,0,4.5,0.5,5.8,1.6c1.2,1,1.9,2.6,1.9,4.8v9.7c0,2.1-0.6,3.7-1.9,4.8
		C89,24.7,87.1,25.2,84.5,25.2z M76.3,22.4h7.5c1.1,0,1.9-0.1,2.6-0.3s1.2-0.5,1.5-0.9s0.6-0.8,0.7-1.3s0.2-1.1,0.2-1.7V10
		c0-0.6-0.1-1.2-0.2-1.7s-0.4-1-0.7-1.4C87.5,6.5,87,6.2,86.4,6c-0.7-0.2-1.5-0.3-2.6-0.3h-7.5V22.4z M83.8,6c1,0,1.8,0.1,2.4,0.3
		c0.6,0.2,1.1,0.5,1.4,0.8c0.3,0.4,0.6,0.8,0.7,1.3s0.2,1,0.2,1.6v8.2c0,0.6-0.1,1.1-0.2,1.6S88,20.7,87.6,21
		c-0.3,0.3-0.8,0.6-1.4,0.8c-0.6,0.2-1.4,0.3-2.4,0.3h-7.2V6H83.8z M80,8.8v10.5h3.7c0.5,0,0.9-0.1,1.1-0.4c0.2-0.2,0.4-0.6,0.4-1.1
		v-7.5c0-0.5-0.1-0.9-0.4-1.1c-0.2-0.2-0.6-0.4-1.1-0.4C83.7,8.8,80,8.8,80,8.8z"/>
	<path class="st1" d="M96.7,25.2c-0.4,0-0.7-0.1-0.9-0.3c-0.2-0.2-0.3-0.5-0.3-0.9v-3.7c0-0.4,0.1-0.7,0.3-0.9
		c0.2-0.2,0.5-0.3,0.9-0.3h3.1V8.8h-3.1c-0.4,0-0.7-0.1-0.9-0.3c-0.2-0.2-0.3-0.5-0.3-0.9V4c0-0.4,0.1-0.7,0.3-0.9
		c0.2-0.2,0.5-0.3,0.9-0.3h13.2c0.4,0,0.7,0.1,0.9,0.3c0.2,0.2,0.3,0.5,0.3,0.9v3.8c0,0.4-0.1,0.7-0.3,0.9c-0.2,0.2-0.5,0.3-0.9,0.3
		h-3v10.4h3c0.4,0,0.7,0.1,0.9,0.3c0.2,0.2,0.3,0.5,0.3,0.9v3.7c0,0.4-0.1,0.7-0.3,0.9c-0.2,0.2-0.5,0.3-0.9,0.3H96.7V25.2z
		 M108.2,22.4v-0.3h-4.7V6h4.7V5.6h-9.9V6h4.8v16.1h-4.8v0.3H108.2z"/>
	<path class="st1" d="M125.2,25.2h-9.8c-0.4,0-0.7-0.1-0.9-0.3c-0.2-0.2-0.3-0.5-0.3-0.9v-3.6c0-0.4,0.1-0.7,0.3-0.9
		c0.2-0.2,0.5-0.3,0.9-0.3h8.3c0.3,0,0.5-0.1,0.6-0.3c0.1-0.2,0.2-0.4,0.2-0.6c0-0.4-0.1-0.6-0.2-0.8c-0.1-0.2-0.3-0.3-0.6-0.3
		l-4.6-0.7c-1.4-0.2-2.6-0.7-3.5-1.4s-1.3-2-1.3-3.7V8.3c0-1.8,0.6-3.1,1.7-4s2.7-1.4,4.7-1.4h8.7c0.4,0,0.7,0.1,0.9,0.3
		s0.3,0.5,0.3,0.9v3.7c0,0.4-0.1,0.7-0.3,0.9S129.8,9,129.4,9h-7.2c-0.3,0-0.5,0.1-0.6,0.3s-0.2,0.4-0.2,0.7s0.1,0.5,0.2,0.7
		s0.4,0.3,0.6,0.3l4.6,0.6c1.4,0.2,2.6,0.7,3.5,1.4s1.3,2,1.3,3.7V20c0,1.8-0.6,3.1-1.7,4S127.2,25.2,125.2,25.2z M127.7,5.6h-6.9
		c-1,0-1.7,0.3-2.3,0.8c-0.6,0.5-0.9,1.2-0.9,2V11c0,0.8,0.2,1.4,0.5,1.8c0.3,0.3,0.8,0.5,1.3,0.6l6.5,1.3c0.6,0.1,1,0.4,1.4,0.7
		c0.3,0.4,0.5,1,0.5,2v1.8c0,0.8-0.3,1.5-0.9,2s-1.3,0.8-2.3,0.8H117v0.3h7.7c1.1,0,1.9-0.3,2.5-0.9s0.9-1.3,0.9-2.2v-1.8
		c0-1.1-0.2-1.8-0.6-2.2s-0.9-0.7-1.5-0.8l-6.5-1.3c-0.5-0.1-0.9-0.3-1.1-0.6c-0.3-0.3-0.4-0.8-0.4-1.5V8.5c0-0.7,0.3-1.3,0.8-1.8
		S120,6,120.9,6h6.9L127.7,5.6L127.7,5.6z"/>
	<path class="st1" d="M140.9,25.2h-4.8c-0.4,0-0.7-0.1-0.9-0.3c-0.2-0.2-0.3-0.5-0.3-0.9V4c0-0.4,0.1-0.7,0.3-0.9s0.5-0.3,0.9-0.3
		h4.8c0.4,0,0.7,0.1,0.9,0.3s0.3,0.5,0.3,0.9v6.7h5.2V4c0-0.4,0.1-0.7,0.3-0.9s0.5-0.3,0.9-0.3h4.8c0.4,0,0.7,0.1,0.9,0.3
		s0.3,0.5,0.3,0.9v20.1c0,0.4-0.1,0.7-0.3,0.9c-0.2,0.2-0.5,0.3-0.9,0.3h-4.8c-0.4,0-0.7-0.1-0.9-0.3c-0.2-0.2-0.3-0.5-0.3-0.9v-6.9
		H142v6.9c0,0.4-0.1,0.7-0.3,0.9C141.6,25.1,141.3,25.2,140.9,25.2z M138.3,22.4h0.3v-8.2h11.9v8.2h0.3V5.6h-0.3v8.2h-11.9V5.6h-0.3
		V22.4z"/>
	<path class="st1" d="M182.5,25.2h-9.8c-2.6,0-4.5-0.5-5.8-1.5s-1.9-2.6-1.9-4.8V9.2c0-2.1,0.6-3.7,1.9-4.8s3.2-1.6,5.8-1.6h7.8
		c0.4,0,0.7,0.1,0.9,0.3s0.3,0.5,0.3,0.9v3.8c0,0.4-0.1,0.7-0.3,0.9S180.9,9,180.5,9h-6.4c-0.6,0-1.1,0.1-1.4,0.4
		c-0.3,0.3-0.5,0.6-0.5,1.2V18c0,0.5,0.1,0.9,0.4,1.1c0.2,0.2,0.6,0.4,1.1,0.4h3v-4.8c0-0.4,0.1-0.7,0.3-0.9s0.5-0.3,0.9-0.3h4.8
		c0.4,0,0.7,0.1,0.9,0.3s0.3,0.5,0.3,0.9v9.6c0,0.4-0.1,0.7-0.3,0.9C183.2,25.1,182.9,25.2,182.5,25.2z M174.1,22.4h6.2v-6.2H180
		v5.9h-5.9c-2.1,0-3.5-0.3-4.2-0.8c-0.7-0.6-1.1-1.5-1.1-2.9V9.7c0-1.4,0.3-2.3,1-2.9c0.6-0.6,1.9-0.9,3.7-0.9h5.4V5.6h-5.4
		c-2,0-3.3,0.3-4,0.9s-1,1.7-1,3.1v8.7c0,0.7,0.1,1.3,0.2,1.8c0.2,0.5,0.4,0.9,0.9,1.2c0.4,0.3,1,0.6,1.7,0.7
		C172,22.3,173,22.4,174.1,22.4z"/>
	<path class="st1" d="M193.3,25.2h-4.8c-0.4,0-0.7-0.1-0.9-0.3c-0.2-0.2-0.3-0.5-0.3-0.9V4c0-0.4,0.1-0.7,0.3-0.9s0.5-0.3,0.9-0.3
		h10.3c2.3,0,3.9,0.5,4.8,1.4c0.9,1,1.3,2.2,1.3,3.7v1.4c0,0.9-0.1,1.6-0.4,2.2c-0.3,0.6-0.7,1-1.3,1.3c1.1,0.1,2,0.6,2.7,1.4
		c0.7,0.8,1,1.8,1,3.1v6.6c0,0.4-0.1,0.7-0.3,0.9c-0.2,0.2-0.5,0.3-0.9,0.3h-4.8c-0.4,0-0.7-0.1-0.9-0.3c-0.2-0.2-0.3-0.5-0.3-0.9
		v-4.7c0-0.5-0.1-0.8-0.3-1s-0.5-0.3-0.9-0.3h-4.3V24c0,0.4-0.1,0.7-0.3,0.9C194,25.1,193.7,25.2,193.3,25.2z M191.1,22.4v-7.2h8.8
		c1.2,0,2,0.3,2.6,0.8c0.6,0.5,0.8,1.3,0.8,2.3v4.2h0.3v-4.2c0-1.1-0.3-1.9-0.9-2.5c-0.6-0.6-1.6-0.9-2.8-0.9h-0.3
		c0.7-0.2,1.2-0.6,1.5-1.3c0.2-0.6,0.4-1.4,0.4-2.3V9.2c0-1-0.3-1.9-0.9-2.5c-0.6-0.7-1.5-1-2.7-1h-7.1v16.7
		C190.8,22.4,191.1,22.4,191.1,22.4z M197.8,6c1.1,0,1.9,0.3,2.4,0.9s0.8,1.4,0.8,2.3v2.2c0,1.1-0.2,2-0.7,2.6
		c-0.4,0.6-1.3,0.9-2.6,0.9h-6.8V6H197.8z M194.4,8.4v4h2.3c0.5,0,0.9-0.1,1.1-0.4c0.2-0.3,0.3-0.6,0.3-1V9.9c0-0.4-0.1-0.8-0.3-1
		c-0.2-0.3-0.5-0.4-1.1-0.4h-2.3V8.4z"/>
	<path class="st1" d="M216.8,24.1c0,0.4-0.1,0.7-0.3,0.9c-0.2,0.2-0.5,0.3-0.9,0.3H211c-0.4,0-0.7-0.1-0.9-0.3
		c-0.2-0.2-0.3-0.5-0.3-0.9v-8.2c0-0.6,0.1-1.3,0.3-2.1c0.2-0.8,0.5-1.7,0.9-2.8l2.7-7c0.1-0.4,0.3-0.6,0.6-0.8s0.6-0.2,1-0.2h8.3
		c0.4,0,0.7,0.1,1,0.2c0.3,0.2,0.4,0.4,0.6,0.8l2.7,7c0.4,1.1,0.7,2,0.9,2.8s0.3,1.5,0.3,2.1v8.2c0,0.4-0.1,0.7-0.3,0.9
		c-0.2,0.2-0.5,0.3-0.9,0.3h-4.7c-0.4,0-0.7-0.1-0.9-0.3c-0.2-0.2-0.3-0.5-0.3-0.9v-4.3h-5.5v4.3C216.5,24.1,216.8,24.1,216.8,24.1z
		 M225.7,22.4h0.3v-6.6c0-0.6,0-1.1-0.1-1.6s-0.2-1-0.4-1.4l-2.1-5.1c-0.2-0.6-0.5-1.1-0.8-1.5s-0.8-0.6-1.4-0.6h-3
		c-0.7,0-1.2,0.2-1.5,0.6s-0.5,0.9-0.8,1.5l-2,5.1c-0.2,0.5-0.3,0.9-0.4,1.4c-0.1,0.5-0.1,1-0.1,1.6v6.6h0.3v-5.3h12.1v5.3
		C225.8,22.4,225.7,22.4,225.7,22.4z M213.6,15.8c0-0.6,0-1.1,0.1-1.6s0.2-0.9,0.4-1.3l2-5.1c0.2-0.5,0.4-1,0.7-1.3
		C217,6.1,217.4,6,218,6h3c0.6,0,1,0.2,1.2,0.5c0.2,0.4,0.5,0.8,0.7,1.3l2.1,5.1c0.1,0.4,0.3,0.9,0.4,1.3c0.1,0.5,0.1,1,0.1,1.6v1
		h-12.1v-1C213.4,15.8,213.6,15.8,213.6,15.8z M218.5,9.4l-1.5,4.7h4.9l-1.5-4.7c-0.1-0.2-0.2-0.3-0.3-0.4c-0.1-0.1-0.2-0.1-0.3-0.1
		H219c-0.1,0-0.2,0-0.3,0.1C218.7,9,218.6,9.2,218.5,9.4z"/>
	<path class="st1" d="M238.8,25.2h-4.6c-0.4,0-0.7-0.1-0.9-0.3c-0.2-0.2-0.3-0.5-0.3-0.9V4c0-0.4,0.1-0.7,0.3-0.9s0.5-0.3,0.9-0.3
		h3.2c0.4,0,0.7,0.1,1,0.2s0.6,0.3,0.8,0.7l6,6.9V4c0-0.4,0.1-0.7,0.3-0.9s0.5-0.3,0.9-0.3h4.7c0.4,0,0.7,0.1,0.9,0.3
		s0.3,0.5,0.3,0.9v20.1c0,0.4-0.1,0.7-0.3,0.9c-0.2,0.2-0.5,0.3-0.9,0.3h-4.7c-0.4,0-0.7-0.1-0.9-0.3c-0.2-0.2-0.3-0.5-0.3-0.9v-3.8
		l-5.3-6.4v10.2c0,0.4-0.1,0.7-0.3,0.9C239.5,25.1,239.2,25.2,238.8,25.2z M237.2,5.9c-0.1-0.1-0.2-0.2-0.2-0.2
		c-0.1,0-0.1-0.1-0.2-0.1c-0.1,0-0.2,0-0.2,0.1c-0.1,0.1-0.1,0.2-0.1,0.3v16.4h0.3V6c0,0,0,0,0-0.1l0,0c0,0,0,0,0.1,0
		c0,0,0.1,0,0.1,0.1l11.7,13.1v3.2h0.3V5.6h-0.3v13.1L237.2,5.9z"/>
	<path class="st1" d="M268,25.2h-10.4c-0.4,0-0.7-0.1-0.9-0.3c-0.2-0.2-0.3-0.5-0.3-0.9V4c0-0.4,0.1-0.7,0.3-0.9
		c0.2-0.2,0.5-0.3,0.9-0.3H268c2.6,0,4.5,0.5,5.8,1.6c1.2,1,1.9,2.6,1.9,4.8v9.7c0,2.1-0.6,3.7-1.9,4.8
		C272.5,24.7,270.6,25.2,268,25.2z M259.8,22.4h7.5c1.1,0,1.9-0.1,2.6-0.3c0.7-0.2,1.2-0.5,1.5-0.9s0.6-0.8,0.7-1.3s0.2-1.1,0.2-1.7
		V10c0-0.6-0.1-1.2-0.2-1.7s-0.4-1-0.7-1.4c-0.4-0.4-0.9-0.7-1.5-0.9c-0.7-0.2-1.5-0.3-2.6-0.3h-7.5V22.4z M267.3,6
		c1,0,1.8,0.1,2.4,0.3c0.6,0.2,1.1,0.5,1.4,0.8c0.3,0.4,0.6,0.8,0.7,1.3s0.2,1,0.2,1.6v8.2c0,0.6-0.1,1.1-0.2,1.6s-0.3,0.9-0.7,1.2
		c-0.3,0.3-0.8,0.6-1.4,0.8s-1.4,0.3-2.4,0.3h-7.2V6H267.3z M263.5,8.8v10.5h3.7c0.5,0,0.9-0.1,1.1-0.4c0.2-0.2,0.4-0.6,0.4-1.1
		v-7.5c0-0.5-0.1-0.9-0.4-1.1c-0.2-0.2-0.6-0.4-1.1-0.4C267.2,8.8,263.5,8.8,263.5,8.8z"/>
	<path class="st1" d="M292.4,25.2h-4.8c-0.4,0-0.7-0.1-0.9-0.3c-0.2-0.2-0.3-0.5-0.3-0.9V4c0-0.4,0.1-0.7,0.3-0.9
		c0.2-0.2,0.5-0.3,0.9-0.3h9.5c2.8,0,4.7,0.6,5.8,1.7c1,1.1,1.6,2.6,1.6,4.4v4c0,1.8-0.5,3.3-1.6,4.4c-1,1.1-3,1.7-5.8,1.7h-3.6v5.1
		c0,0.4-0.1,0.7-0.3,0.9C293.1,25.1,292.8,25.2,292.4,25.2z M296.7,16.3c1,0,1.8-0.1,2.4-0.3c0.6-0.2,1.1-0.5,1.4-0.9
		s0.6-0.8,0.7-1.3s0.2-1.1,0.2-1.7V9.9c0-0.6-0.1-1.2-0.2-1.7s-0.4-1-0.7-1.3c-0.3-0.4-0.8-0.7-1.4-0.9c-0.6-0.2-1.4-0.3-2.4-0.3
		H290v16.7h0.3v-6.1H296.7z M290.3,16V6h6.4c0.9,0,1.6,0.1,2.2,0.3c0.6,0.2,1,0.5,1.3,0.8c0.3,0.4,0.5,0.8,0.6,1.2
		c0.1,0.5,0.2,1,0.2,1.5v2.3c0,0.6-0.1,1.1-0.2,1.5s-0.3,0.9-0.6,1.2c-0.3,0.3-0.7,0.6-1.3,0.8c-0.6,0.2-1.3,0.3-2.2,0.3L290.3,16
		L290.3,16z M293.5,8.7v4.7h2.8c0.6,0,1-0.2,1.2-0.5s0.3-0.7,0.3-1.1v-1.6c0-0.4-0.1-0.7-0.3-1.1c-0.2-0.3-0.6-0.5-1.2-0.5h-2.8V8.7
		z"/>
	<path class="st1" d="M313.6,25.2h-4.8c-0.4,0-0.7-0.1-0.9-0.3c-0.2-0.2-0.3-0.5-0.3-0.9V4c0-0.4,0.1-0.7,0.3-0.9
		c0.2-0.2,0.5-0.3,0.9-0.3h10.3c2.3,0,3.9,0.5,4.8,1.4c0.9,1,1.3,2.2,1.3,3.7v1.4c0,0.9-0.1,1.6-0.4,2.2c-0.3,0.6-0.7,1-1.3,1.3
		c1.1,0.1,2,0.6,2.7,1.4c0.7,0.8,1,1.8,1,3.1v6.6c0,0.4-0.1,0.7-0.3,0.9c-0.2,0.2-0.5,0.3-0.9,0.3h-4.8c-0.4,0-0.7-0.1-0.9-0.3
		c-0.2-0.2-0.3-0.5-0.3-0.9v-4.7c0-0.5-0.1-0.8-0.3-1c-0.2-0.2-0.5-0.3-0.9-0.3h-4.3V24c0,0.4-0.1,0.7-0.3,0.9
		C314.2,25.1,313.9,25.2,313.6,25.2z M311.3,22.4v-7.2h8.8c1.2,0,2,0.3,2.6,0.8c0.6,0.5,0.8,1.3,0.8,2.3v4.2h0.3v-4.2
		c0-1.1-0.3-1.9-0.9-2.5c-0.6-0.6-1.6-0.9-2.8-0.9h-0.3c0.7-0.2,1.2-0.6,1.5-1.3c0.2-0.6,0.4-1.4,0.4-2.3V9.2c0-1-0.3-1.9-0.9-2.5
		c-0.6-0.7-1.5-1-2.7-1H311v16.7C311,22.4,311.3,22.4,311.3,22.4z M318.1,6c1.1,0,1.9,0.3,2.4,0.9s0.8,1.4,0.8,2.3v2.2
		c0,1.1-0.2,2-0.7,2.6c-0.4,0.6-1.3,0.9-2.6,0.9h-6.8V6H318.1z M314.7,8.4v4h2.3c0.5,0,0.9-0.1,1.1-0.4c0.2-0.3,0.3-0.6,0.3-1V9.9
		c0-0.4-0.1-0.8-0.3-1c-0.2-0.3-0.5-0.4-1.1-0.4h-2.3V8.4z"/>
	<path class="st1" d="M331.3,25.2c-0.4,0-0.7-0.1-0.9-0.3c-0.2-0.2-0.3-0.5-0.3-0.9v-3.7c0-0.4,0.1-0.7,0.3-0.9
		c0.2-0.2,0.5-0.3,0.9-0.3h3.1V8.8h-3.1c-0.4,0-0.7-0.1-0.9-0.3c-0.2-0.2-0.3-0.5-0.3-0.9V4c0-0.4,0.1-0.7,0.3-0.9
		c0.2-0.2,0.5-0.3,0.9-0.3h13.2c0.4,0,0.7,0.1,0.9,0.3c0.2,0.2,0.3,0.5,0.3,0.9v3.8c0,0.4-0.1,0.7-0.3,0.9c-0.2,0.2-0.5,0.3-0.9,0.3
		h-3v10.4h3c0.4,0,0.7,0.1,0.9,0.3s0.3,0.5,0.3,0.9v3.7c0,0.4-0.1,0.7-0.3,0.9c-0.2,0.2-0.5,0.3-0.9,0.3h-13.2V25.2z M342.9,22.4
		v-0.3h-4.7V6h4.7V5.6H333V6h4.8v16.1H333v0.3H342.9z"/>
	<path class="st1" d="M356.1,24.1c0,0.4-0.1,0.7-0.3,0.9c-0.2,0.2-0.5,0.3-0.9,0.3h-4.7c-0.4,0-0.7-0.1-0.9-0.3
		c-0.2-0.2-0.3-0.5-0.3-0.9v-3.3c0-1,0.1-1.7,0.2-2.1c0.2-0.5,0.5-1,0.9-1.7l2.5-3.4l-2.5-3.4c-0.5-0.6-0.8-1.2-0.9-1.7
		S349,7.3,349,6.4V4c0-0.4,0.1-0.7,0.3-0.9c0.2-0.2,0.5-0.3,0.9-0.3h4.8c0.4,0,0.7,0.1,0.9,0.3c0.2,0.2,0.3,0.5,0.3,0.9v2.1
		c0,0.2,0,0.4,0,0.7c0,0.2,0.1,0.4,0.2,0.7l1.4,2c0.1,0.2,0.2,0.3,0.3,0.4c0.1,0.1,0.3,0.1,0.4,0.1h0.4c0.2,0,0.3,0,0.4-0.1
		s0.2-0.2,0.3-0.4l1.4-2c0.1-0.2,0.2-0.4,0.2-0.7c0-0.2,0-0.4,0-0.7V4c0-0.4,0.1-0.7,0.3-0.9c0.2-0.2,0.5-0.3,0.9-0.3h4.7
		c0.4,0,0.7,0.1,0.9,0.3c0.2,0.2,0.3,0.5,0.3,0.9v2.4c0,1-0.1,1.7-0.2,2.1c-0.2,0.5-0.5,1-0.9,1.7l-2.5,3.4l2.5,3.3
		c0.5,0.6,0.8,1.2,0.9,1.7c0.2,0.5,0.2,1.2,0.2,2.1V24c0,0.4-0.1,0.7-0.3,0.9c-0.2,0.2-0.5,0.3-0.9,0.3h-4.7c-0.4,0-0.7-0.1-0.9-0.3
		c-0.2-0.2-0.3-0.5-0.3-0.9v-3c0-0.2,0-0.4,0-0.7c0-0.2-0.1-0.4-0.2-0.7l-1.4-2c-0.1-0.2-0.2-0.3-0.3-0.4c-0.1-0.1-0.2-0.1-0.4-0.1
		h-0.4c-0.2,0-0.3,0-0.4,0.1s-0.2,0.2-0.3,0.4l-1.4,2c-0.1,0.2-0.2,0.4-0.2,0.7s0,0.4,0,0.7L356.1,24.1L356.1,24.1z M352.8,21
		c0-0.4,0-0.9,0.1-1.3c0-0.4,0.2-0.7,0.4-1l3.7-5h3.7l3.6,5c0.2,0.3,0.3,0.6,0.4,1c0,0.4,0.1,0.8,0.1,1.2v1.4h0.3V21
		c0-0.5,0-0.9-0.1-1.3c0-0.4-0.2-0.8-0.4-1.1l-3.7-5l3.7-5.1c0.2-0.3,0.4-0.7,0.4-1.1s0.1-0.8,0.1-1.3V5.6h-0.3v0.5
		c0,0.4,0,0.8-0.1,1.2c0,0.4-0.2,0.7-0.4,1l-3.6,5H357l-3.7-5c-0.2-0.3-0.3-0.6-0.4-1c0-0.4-0.1-0.8-0.1-1.2V5.6h-0.3v0.5
		c0,0.5,0,0.9,0.1,1.3c0,0.4,0.2,0.8,0.4,1.1l3.7,5l-3.7,5.1c-0.2,0.3-0.4,0.7-0.4,1.1s0,0.8,0,1.3v1.4h0.3V21H352.8z"/>
</g>
</svg>
